<svg width="24" height="24" viewBox="0 0 24 24" fill="none" xmlns="http://www.w3.org/2000/svg">
<path d="M4 20H20" stroke="#F6F8FA" stroke-width="2" stroke-linecap="round" stroke-linejoin="round"/>
<path d="M8 20V21C8.26522 21 8.51957 20.8946 8.70711 20.7071L8 20ZM4 20H3C3 20.5523 3.44772 21 4 21V20ZM4 16L3.29289 15.2929C3.10536 15.4804 3 15.7348 3 16H4ZM15.2929 4.70711L16 5.41422L16 5.41421L15.2929 4.70711ZM16.7071 4.70711L16 5.41421L16 5.41422L16.7071 4.70711ZM19.2929 7.2929L20 6.58579L20 6.58579L19.2929 7.2929ZM19.2929 8.70711L18.5858 8L19.2929 8.70711ZM8 19H4V21H8V19ZM5 20V16H3V20H5ZM4.70711 16.7071L16 5.41422L14.5858 4L3.29289 15.2929L4.70711 16.7071ZM16 5.41422L18.5858 8L20 6.58579L17.4142 4L16 5.41422ZM18.5858 8L7.29289 19.2929L8.70711 20.7071L20 9.41421L18.5858 8ZM18.5858 8L18.5858 8L20 9.41421C20.781 8.63317 20.7811 7.36684 20 6.58579L18.5858 8ZM16 5.41421H16L17.4142 4C16.6332 3.21895 15.3668 3.21895 14.5858 4L16 5.41421Z" fill="#F6F8FA"/>
<path d="M12 8L16 12" stroke="#F6F8FA" stroke-width="2" stroke-linecap="round" stroke-linejoin="round"/>
</svg>
