<svg width="44" height="44" viewBox="0 0 44 44" fill="none" xmlns="http://www.w3.org/2000/svg">
<path d="M0 22C0 9.84974 9.84974 0 22 0V0C34.1503 0 44 9.84974 44 22V22C44 34.1503 34.1503 44 22 44V44C9.84974 44 0 34.1503 0 22V22Z" fill="#4C4C4D"/>
<path d="M14 30H30" stroke="#202022" stroke-width="2" stroke-linecap="round" stroke-linejoin="round"/>
<path d="M18 30V31C18.2652 31 18.5196 30.8946 18.7071 30.7071L18 30ZM14 30H13C13 30.5523 13.4477 31 14 31V30ZM14 26L13.2929 25.2929C13.1054 25.4804 13 25.7348 13 26H14ZM25.2929 14.7071L26 15.4142L26 15.4142L25.2929 14.7071ZM26.7071 14.7071L26 15.4142L26 15.4142L26.7071 14.7071ZM29.2929 17.2929L30 16.5858L30 16.5858L29.2929 17.2929ZM29.2929 18.7071L28.5858 18L29.2929 18.7071ZM18 29H14V31H18V29ZM15 30V26H13V30H15ZM14.7071 26.7071L26 15.4142L24.5858 14L13.2929 25.2929L14.7071 26.7071ZM26 15.4142L28.5858 18L30 16.5858L27.4142 14L26 15.4142ZM28.5858 18L17.2929 29.2929L18.7071 30.7071L30 19.4142L28.5858 18ZM28.5858 18L28.5858 18L30 19.4142C30.781 18.6332 30.7811 17.3668 30 16.5858L28.5858 18ZM26 15.4142H26L27.4142 14C26.6332 13.219 25.3668 13.219 24.5858 14L26 15.4142Z" fill="#202022"/>
<path d="M22 18L26 22" stroke="#202022" stroke-width="2" stroke-linecap="round" stroke-linejoin="round"/>
</svg>
