<svg width="44" height="44" viewBox="0 0 44 44" fill="none" xmlns="http://www.w3.org/2000/svg">
<path d="M0 22C0 9.84974 9.84974 0 22 0V0C34.1503 0 44 9.84974 44 22V22C44 34.1503 34.1503 44 22 44V44C9.84974 44 0 34.1503 0 22V22Z" fill="#4C4C4D"/>
<path d="M25.7071 16.2929C25.3166 15.9024 24.6834 15.9024 24.2929 16.2929C23.9024 16.6834 23.9024 17.3166 24.2929 17.7071L25.7071 16.2929ZM30 22L30.7071 22.7071C31.0976 22.3166 31.0976 21.6834 30.7071 21.2929L30 22ZM24.2929 26.2929C23.9024 26.6834 23.9024 27.3166 24.2929 27.7071C24.6834 28.0976 25.3166 28.0976 25.7071 27.7071L24.2929 26.2929ZM24.2929 17.7071L29.2929 22.7071L30.7071 21.2929L25.7071 16.2929L24.2929 17.7071ZM29.2929 21.2929L24.2929 26.2929L25.7071 27.7071L30.7071 22.7071L29.2929 21.2929Z" fill="#202022"/>
<path d="M18.2929 27.7071C18.6834 28.0976 19.3166 28.0976 19.7071 27.7071C20.0976 27.3166 20.0976 26.6834 19.7071 26.2929L18.2929 27.7071ZM14 22L13.2929 21.2929C12.9024 21.6834 12.9024 22.3166 13.2929 22.7071L14 22ZM19.7071 17.7071C20.0976 17.3166 20.0976 16.6834 19.7071 16.2929C19.3166 15.9024 18.6834 15.9024 18.2929 16.2929L19.7071 17.7071ZM19.7071 26.2929L14.7071 21.2929L13.2929 22.7071L18.2929 27.7071L19.7071 26.2929ZM14.7071 22.7071L19.7071 17.7071L18.2929 16.2929L13.2929 21.2929L14.7071 22.7071Z" fill="#202022"/>
</svg>
