<svg width="44" height="44" viewBox="0 0 44 44" fill="none" xmlns="http://www.w3.org/2000/svg">
<path d="M0 22C0 9.84974 9.84974 0 22 0V0C34.1503 0 44 9.84974 44 22V22C44 34.1503 34.1503 44 22 44V44C9.84974 44 0 34.1503 0 22V22Z" fill="#4C4C4D"/>
<path d="M22 20V17" stroke="#202022" stroke-width="2" stroke-linecap="round" stroke-linejoin="round"/>
<path d="M28 25V19C28 15.6863 25.3137 13 22 13C18.6863 13 16 15.6863 16 19V25C16 28.3137 18.6863 31 22 31C25.3137 31 28 28.3137 28 25Z" stroke="#202022" stroke-width="2" stroke-linecap="round" stroke-linejoin="round"/>
</svg>
