<svg width="44" height="44" viewBox="0 0 44 44" fill="none" xmlns="http://www.w3.org/2000/svg">
<path d="M0 22C0 9.84974 9.84974 0 22 0V0C34.1503 0 44 9.84974 44 22V22C44 34.1503 34.1503 44 22 44V44C9.84974 44 0 34.1503 0 22V22Z" fill="#4C4C4D"/>
<path d="M22 31C26.9706 31 31 26.9706 31 22C31 17.0294 26.9706 13 22 13C17.0294 13 13 17.0294 13 22C13 26.9706 17.0294 31 22 31Z" stroke="#202022" stroke-width="2" stroke-miterlimit="10" stroke-linecap="round" stroke-linejoin="round"/>
<path d="M13 22H31" stroke="#202022" stroke-width="2" stroke-linecap="round" stroke-linejoin="round"/>
<path d="M22 31C23.6569 31 25 26.9706 25 22C25 17.0294 23.6569 13 22 13C20.3431 13 19 17.0294 19 22C19 26.9706 20.3431 31 22 31Z" stroke="#202022" stroke-width="2" stroke-miterlimit="10" stroke-linecap="round" stroke-linejoin="round"/>
</svg>
