<svg width="16" height="16" viewBox="0 0 16 16" fill="none" xmlns="http://www.w3.org/2000/svg">
<path d="M10 3.33333H13.3333C13.7015 3.33333 14 3.6318 14 3.99999V10.6667C14 11.0349 13.7015 11.3333 13.3333 11.3333H10.4037C9.73499 11.3333 9.11053 11.6675 8.7396 12.2239L8 13.3333V5.33333C8 4.22876 8.89543 3.33333 10 3.33333Z" stroke="#777778" stroke-width="1.33333" stroke-linecap="round" stroke-linejoin="round"/>
<path d="M6 3.33333H2.66667C2.29848 3.33333 2 3.6318 2 3.99999V10.6667C2 11.0349 2.29848 11.3333 2.66667 11.3333H5.5963C6.26501 11.3333 6.88947 11.6675 7.2604 12.2239L8 13.3333V5.33333C8 4.22876 7.10457 3.33333 6 3.33333Z" stroke="#777778" stroke-width="1.33333" stroke-linecap="round" stroke-linejoin="round"/>
</svg>
