<svg width="24" height="24" viewBox="0 0 24 24" fill="none" xmlns="http://www.w3.org/2000/svg">
<path d="M12 17C14.7614 17 17 14.7614 17 12C17 9.23858 14.7614 7 12 7C9.23858 7 7 9.23858 7 12C7 14.7614 9.23858 17 12 17Z" stroke="#F6F8FA" stroke-width="2" stroke-linecap="round" stroke-linejoin="round"/>
<path d="M11 4C11 4.55228 11.4477 5 12 5C12.5523 5 13 4.55228 13 4H11ZM13 2C13 1.44772 12.5523 1 12 1C11.4477 1 11 1.44772 11 2H13ZM13 20C13 19.4477 12.5523 19 12 19C11.4477 19 11 19.4477 11 20H13ZM11 22C11 22.5523 11.4477 23 12 23C12.5523 23 13 22.5523 13 22H11ZM13 4V2H11V4H13ZM11 20V22H13V20H11Z" fill="#F6F8FA"/>
<path d="M5.70711 7.12132C6.09763 7.51184 6.7308 7.51184 7.12132 7.12132C7.51184 6.7308 7.51184 6.09763 7.12132 5.70711L5.70711 7.12132ZM5.70711 4.29289C5.31658 3.90237 4.68342 3.90237 4.29289 4.29289C3.90237 4.68342 3.90237 5.31658 4.29289 5.70711L5.70711 4.29289ZM18.435 17.0208C18.0445 16.6303 17.4113 16.6303 17.0208 17.0208C16.6303 17.4113 16.6303 18.0445 17.0208 18.435L18.435 17.0208ZM18.435 19.8492C18.8256 20.2398 19.4587 20.2398 19.8492 19.8492C20.2398 19.4587 20.2398 18.8256 19.8492 18.435L18.435 19.8492ZM7.12132 5.70711L5.70711 4.29289L4.29289 5.70711L5.70711 7.12132L7.12132 5.70711ZM17.0208 18.435L18.435 19.8492L19.8492 18.435L18.435 17.0208L17.0208 18.435Z" fill="#F6F8FA"/>
<path d="M4 13C4.55228 13 5 12.5523 5 12C5 11.4477 4.55228 11 4 11V13ZM2 11C1.44772 11 1 11.4477 1 12C1 12.5523 1.44772 13 2 13V11ZM20 11C19.4477 11 19 11.4477 19 12C19 12.5523 19.4477 13 20 13V11ZM22 13C22.5523 13 23 12.5523 23 12C23 11.4477 22.5523 11 22 11V13ZM4 11H2V13H4V11ZM20 13H22V11H20V13Z" fill="#F6F8FA"/>
<path d="M17.0208 5.70711C16.6303 6.09763 16.6303 6.7308 17.0208 7.12132C17.4113 7.51184 18.0445 7.51184 18.435 7.12132L17.0208 5.70711ZM19.8492 5.70711C20.2398 5.31658 20.2398 4.68342 19.8492 4.29289C19.4587 3.90237 18.8256 3.90237 18.435 4.29289L19.8492 5.70711ZM7.12132 18.435C7.51184 18.0445 7.51184 17.4113 7.12132 17.0208C6.7308 16.6303 6.09763 16.6303 5.70711 17.0208L7.12132 18.435ZM4.29289 18.435C3.90237 18.8256 3.90237 19.4587 4.29289 19.8492C4.68342 20.2398 5.31658 20.2398 5.70711 19.8492L4.29289 18.435ZM18.435 7.12132L19.8492 5.70711L18.435 4.29289L17.0208 5.70711L18.435 7.12132ZM5.70711 17.0208L4.29289 18.435L5.70711 19.8492L7.12132 18.435L5.70711 17.0208Z" fill="#F6F8FA"/>
</svg>
