<svg width="25" height="24" viewBox="0 0 25 24" fill="none" xmlns="http://www.w3.org/2000/svg">
<path d="M19.666 12C19.666 10.5022 19.1856 9.04381 18.2953 7.83928C17.405 6.63474 16.1518 5.74755 14.7198 5.30808C13.2879 4.86861 11.7528 4.90003 10.3401 5.39774C8.92732 5.89544 7.71148 6.83318 6.87122 8.07314C6.03095 9.31309 5.61058 10.7899 5.67188 12.2865C5.73318 13.7831 6.27291 15.2205 7.21176 16.3876C8.15062 17.5547 9.43907 18.3899 10.8878 18.7704C12.3365 19.1509 13.869 19.0566 15.2602 18.5015" stroke="#57606A" stroke-width="2" stroke-linecap="round" stroke-linejoin="round"/>
<path d="M20.666 12C20.666 11.4477 20.2183 11 19.666 11C19.1137 11 18.666 11.4477 18.666 12H20.666ZM16.666 9C16.666 8.44772 16.2183 8 15.666 8C15.1137 8 14.666 8.44772 14.666 9H16.666ZM18.666 12V13H20.666V12H18.666ZM16.666 13V9H14.666V13H16.666ZM17.666 14C17.1137 14 16.666 13.5523 16.666 13H14.666C14.666 14.6569 16.0092 16 17.666 16V14ZM18.666 13C18.666 13.5523 18.2183 14 17.666 14V16C19.3229 16 20.666 14.6569 20.666 13H18.666Z" fill="#57606A"/>
<path d="M15.666 12C15.666 13.6569 14.3229 15 12.666 15C11.0092 15 9.66602 13.6569 9.66602 12C9.66602 10.3431 11.0092 9 12.666 9C14.3229 9 15.666 10.3431 15.666 12Z" stroke="#57606A" stroke-width="2" stroke-linecap="round" stroke-linejoin="round"/>
</svg>
