<svg width="16" height="16" viewBox="0 0 16 16" fill="none" xmlns="http://www.w3.org/2000/svg">
<path d="M10.4714 9.13809C10.7318 8.87774 10.7318 8.45563 10.4714 8.19528C10.2111 7.93493 9.78895 7.93493 9.5286 8.19528L10.4714 9.13809ZM7.33333 11.3334L6.86193 11.8048C7.12228 12.0651 7.54439 12.0651 7.80474 11.8048L7.33333 11.3334ZM6.4714 9.52862C6.21105 9.26827 5.78895 9.26827 5.5286 9.52862C5.26825 9.78897 5.26825 10.2111 5.5286 10.4714L6.4714 9.52862ZM9.5286 8.19528L6.86193 10.8619L7.80474 11.8048L10.4714 9.13809L9.5286 8.19528ZM7.80474 10.8619L6.4714 9.52862L5.5286 10.4714L6.86193 11.8048L7.80474 10.8619Z" fill="#57606A"/>
<path d="M11.9997 14H3.99968C3.63149 14 3.33301 13.7015 3.33301 13.3333L3.33301 2.66667C3.33301 2.29848 3.63148 2 3.99967 2L9.04173 2C9.22744 2 9.40473 2.07746 9.53091 2.21373L12.4888 5.40831C12.603 5.53154 12.6663 5.6933 12.6663 5.86125L12.6663 13.3333C12.6663 13.7015 12.3679 14 11.9997 14Z" stroke="#57606A" stroke-width="1.33333" stroke-linecap="round" stroke-linejoin="round"/>
<path d="M12.667 6L9.33366 6C8.96547 6 8.66699 5.70152 8.66699 5.33333L8.66699 2" stroke="#57606A" stroke-width="1.33333" stroke-linecap="round" stroke-linejoin="round"/>
</svg>
