<svg width="102" height="24" viewBox="0 0 102 24" fill="none" xmlns="http://www.w3.org/2000/svg">
<path d="M0.114258 17.9999V1.07994H3.85826V8.44794H3.90626L10.8423 1.07994H15.2823L6.76226 9.93594L6.78626 8.39994L15.8103 17.9999H11.2263L3.90626 10.2719H3.85826V17.9999H0.114258Z" fill="#24292F"/>
<path d="M16.3039 17.9999V5.83194H19.9279V17.9999H16.3039ZM16.1599 3.83994V0.455939H20.0479V3.83994H16.1599Z" fill="#24292F"/>
<path d="M22.8899 17.9999V8.99994C22.8899 8.48794 22.8739 7.96794 22.8419 7.43994C22.8099 6.89594 22.7619 6.35994 22.6979 5.83194H26.1779L26.4419 8.08794H26.1539C26.5539 7.28794 27.1219 6.67194 27.8579 6.23994C28.5939 5.80794 29.4499 5.59194 30.4259 5.59194C31.8499 5.59194 32.9139 6.00794 33.6179 6.83994C34.3379 7.65594 34.6979 8.92794 34.6979 10.6559V17.9999H31.0739V10.8239C31.0739 9.94394 30.9139 9.31994 30.5939 8.95194C30.2739 8.58394 29.7939 8.39994 29.1539 8.39994C28.3539 8.39994 27.7139 8.65594 27.2339 9.16794C26.7539 9.66394 26.5139 10.3359 26.5139 11.1839V17.9999H22.8899Z" fill="#24292F"/>
<path d="M43.3926 23.3759C42.2246 23.3759 41.1846 23.2559 40.2726 23.0159C39.3606 22.7919 38.5446 22.4479 37.8246 21.9839L38.5206 19.3919C38.9686 19.6799 39.4406 19.9119 39.9366 20.0879C40.4486 20.2799 40.9686 20.4159 41.4966 20.4959C42.0406 20.5919 42.5766 20.6399 43.1046 20.6399C44.1766 20.6399 44.9766 20.3839 45.5046 19.8719C46.0326 19.3599 46.2966 18.6319 46.2966 17.6879V15.1679H46.5366C46.2806 15.9359 45.7686 16.5519 45.0006 17.0159C44.2326 17.4799 43.3686 17.7119 42.4086 17.7119C41.3206 17.7119 40.3686 17.4639 39.5526 16.9679C38.7526 16.4719 38.1286 15.7679 37.6806 14.8559C37.2326 13.9439 37.0086 12.8719 37.0086 11.6399C37.0086 10.4079 37.2326 9.33594 37.6806 8.42394C38.1286 7.51194 38.7526 6.81594 39.5526 6.33594C40.3686 5.83994 41.3206 5.59194 42.4086 5.59194C43.3846 5.59194 44.2406 5.82394 44.9766 6.28794C45.7286 6.73594 46.2326 7.33594 46.4886 8.08794L46.2966 7.99194L46.5366 5.83194H50.0406C49.9766 6.35994 49.9286 6.89594 49.8966 7.43994C49.8646 7.96794 49.8486 8.48794 49.8486 8.99994V17.2799C49.8486 19.2479 49.2966 20.7519 48.1926 21.7919C47.0886 22.8479 45.4886 23.3759 43.3926 23.3759ZM43.4886 14.9759C44.3366 14.9759 45.0086 14.6879 45.5046 14.1119C46.0006 13.5359 46.2486 12.7119 46.2486 11.6399C46.2486 10.5679 46.0006 9.75194 45.5046 9.19194C45.0086 8.61594 44.3366 8.32794 43.4886 8.32794C42.6086 8.32794 41.9126 8.61594 41.4006 9.19194C40.9046 9.75194 40.6566 10.5679 40.6566 11.6399C40.6566 12.7119 40.9046 13.5359 41.4006 14.1119C41.9126 14.6879 42.6086 14.9759 43.4886 14.9759Z" fill="#24292F"/>
<path d="M57.2841 18.2639C56.1961 18.2639 55.2041 18.1439 54.3081 17.9039C53.4121 17.6639 52.6521 17.3279 52.0281 16.8959L52.9641 14.4959C53.5881 14.8799 54.2761 15.1839 55.0281 15.4079C55.7961 15.6319 56.5561 15.7439 57.3081 15.7439C58.0121 15.7439 58.5321 15.6319 58.8681 15.4079C59.2041 15.1839 59.3721 14.8799 59.3721 14.4959C59.3721 14.1759 59.2601 13.9279 59.0361 13.7519C58.8281 13.5759 58.5001 13.4479 58.0521 13.3679L55.5801 12.9119C54.5401 12.7039 53.7481 12.3199 53.2041 11.7599C52.6601 11.1999 52.3881 10.4719 52.3881 9.57594C52.3881 8.79194 52.5961 8.10394 53.0121 7.51194C53.4441 6.90394 54.0601 6.43194 54.8601 6.09594C55.6601 5.75994 56.5961 5.59194 57.6681 5.59194C58.5801 5.59194 59.4441 5.70394 60.2601 5.92794C61.0761 6.15194 61.7721 6.49594 62.3481 6.95994L61.3641 9.28794C60.8681 8.91994 60.2921 8.62394 59.6361 8.39994C58.9961 8.17594 58.3801 8.06394 57.7881 8.06394C57.0201 8.06394 56.4681 8.19194 56.1321 8.44794C55.7961 8.68794 55.6281 8.99994 55.6281 9.38394C55.6281 9.67194 55.7241 9.91194 55.9161 10.1039C56.1241 10.2959 56.4361 10.4399 56.8521 10.5359L59.3481 10.9919C60.4201 11.1839 61.2361 11.5439 61.7961 12.0719C62.3561 12.5999 62.6361 13.3279 62.6361 14.2559C62.6361 15.1039 62.4121 15.8239 61.9641 16.4159C61.5161 17.0079 60.8841 17.4639 60.0681 17.7839C59.2681 18.1039 58.3401 18.2639 57.2841 18.2639Z" fill="#24292F"/>
<path d="M64.8899 17.9999V0.335938H68.5139V17.9999H64.8899Z" fill="#24292F"/>
<path d="M77.5958 18.2639C75.4838 18.2639 73.8358 17.6959 72.6518 16.5599C71.4678 15.4239 70.8758 13.8799 70.8758 11.9279C70.8758 10.6639 71.1238 9.55994 71.6198 8.61594C72.1318 7.67194 72.8358 6.93594 73.7318 6.40794C74.6438 5.86394 75.7078 5.59194 76.9238 5.59194C78.1238 5.59194 79.1238 5.84794 79.9238 6.35994C80.7398 6.87194 81.3478 7.59194 81.7478 8.51994C82.1638 9.43194 82.3718 10.4959 82.3718 11.7119V12.5519H73.8518V10.7519H79.7318L79.3238 11.0879C79.3238 10.0799 79.1158 9.31994 78.6998 8.80794C78.2998 8.27994 77.7158 8.01594 76.9478 8.01594C76.0998 8.01594 75.4438 8.32794 74.9798 8.95194C74.5318 9.57594 74.3078 10.4719 74.3078 11.6399V12.0239C74.3078 13.2079 74.5958 14.0879 75.1718 14.6639C75.7638 15.2399 76.6118 15.5279 77.7158 15.5279C78.3718 15.5279 78.9878 15.4479 79.5638 15.2879C80.1558 15.1119 80.7158 14.8399 81.2438 14.4719L82.2518 16.8719C81.6438 17.3199 80.9398 17.6639 80.1398 17.9039C79.3558 18.1439 78.5078 18.2639 77.5958 18.2639Z" fill="#24292F"/>
<path d="M90.7911 18.2639C88.6791 18.2639 87.0311 17.6959 85.8471 16.5599C84.6631 15.4239 84.0711 13.8799 84.0711 11.9279C84.0711 10.6639 84.3191 9.55994 84.8151 8.61594C85.3271 7.67194 86.0311 6.93594 86.9271 6.40794C87.8391 5.86394 88.9031 5.59194 90.1191 5.59194C91.3191 5.59194 92.3191 5.84794 93.1191 6.35994C93.9351 6.87194 94.5431 7.59194 94.9431 8.51994C95.3591 9.43194 95.5671 10.4959 95.5671 11.7119V12.5519H87.0471V10.7519H92.9271L92.5191 11.0879C92.5191 10.0799 92.3111 9.31994 91.8951 8.80794C91.4951 8.27994 90.9111 8.01594 90.1431 8.01594C89.2951 8.01594 88.6391 8.32794 88.1751 8.95194C87.7271 9.57594 87.5031 10.4719 87.5031 11.6399V12.0239C87.5031 13.2079 87.7911 14.0879 88.3671 14.6639C88.9591 15.2399 89.8071 15.5279 90.9111 15.5279C91.5671 15.5279 92.1831 15.4479 92.7591 15.2879C93.3511 15.1119 93.9111 14.8399 94.4391 14.4719L95.4471 16.8719C94.8391 17.3199 94.1351 17.6639 93.3351 17.9039C92.5511 18.1439 91.7031 18.2639 90.7911 18.2639Z" fill="#24292F"/>
<path d="M97.5544 17.9999V14.1599H101.442V17.9999H97.5544Z" fill="#24292F"/>
</svg>
