<svg width="18" height="18" viewBox="0 0 18 18" fill="none" xmlns="http://www.w3.org/2000/svg">
<path d="M7.5 3.75H4.5C4.08579 3.75 3.75 4.08579 3.75 4.5V13.5C3.75 13.9142 4.08579 14.25 4.5 14.25H13.5C13.9142 14.25 14.25 13.9142 14.25 13.5V10.5" stroke="#8C9196" stroke-width="1.5" stroke-linecap="round" stroke-linejoin="round"/>
<path d="M14.25 6.75C14.25 7.16421 14.5858 7.5 15 7.5C15.4142 7.5 15.75 7.16421 15.75 6.75H14.25ZM15 3L15.75 3C15.75 2.80109 15.671 2.61032 15.5303 2.46967C15.3897 2.32902 15.1989 2.25 15 2.25V3ZM11.25 2.25C10.8358 2.25 10.5 2.58579 10.5 3C10.5 3.41421 10.8358 3.75 11.25 3.75V2.25ZM15.75 6.75L15.75 3L14.25 3L14.25 6.75H15.75ZM15 2.25H11.25V3.75H15V2.25Z" fill="#8C9196"/>
<path d="M9.21967 7.71967C8.92678 8.01256 8.92678 8.48744 9.21967 8.78033C9.51256 9.07322 9.98744 9.07322 10.2803 8.78033L9.21967 7.71967ZM15.5303 3.53033C15.8232 3.23744 15.8232 2.76256 15.5303 2.46967C15.2374 2.17678 14.7626 2.17678 14.4697 2.46967L15.5303 3.53033ZM10.2803 8.78033L15.5303 3.53033L14.4697 2.46967L9.21967 7.71967L10.2803 8.78033Z" fill="#8C9196"/>
</svg>
