<svg width="16" height="16" viewBox="0 0 16 16" fill="none" xmlns="http://www.w3.org/2000/svg">
<path d="M8 13.3333H7.33333C7.33333 13.6271 7.52564 13.8862 7.80681 13.9714C8.08798 14.0565 8.39174 13.9476 8.5547 13.7031L8 13.3333ZM8.7396 12.2239L9.2943 12.5937H9.2943L8.7396 12.2239ZM13.3333 2.66665H10V3.99998H13.3333V2.66665ZM7.33333 5.33331V13.3333H8.66667V5.33331H7.33333ZM14.6667 10.6666V3.99998H13.3333V10.6666H14.6667ZM8.5547 13.7031L9.2943 12.5937L8.1849 11.8541L7.4453 12.9635L8.5547 13.7031ZM10.4037 12H13.3333V10.6666H10.4037V12ZM9.2943 12.5937C9.54159 12.2228 9.9579 12 10.4037 12V10.6666C9.51209 10.6666 8.67948 11.1122 8.1849 11.8541L9.2943 12.5937ZM13.3333 10.6666V12C14.0697 12 14.6667 11.403 14.6667 10.6666H13.3333ZM10 2.66665C8.52724 2.66665 7.33333 3.86055 7.33333 5.33331H8.66667C8.66667 4.59693 9.26362 3.99998 10 3.99998V2.66665ZM13.3333 3.99998V3.99998H14.6667C14.6667 3.2636 14.0697 2.66665 13.3333 2.66665V3.99998Z" fill="#57606A"/>
<path d="M8 13.3333L7.4453 13.7031C7.60826 13.9476 7.91202 14.0565 8.19319 13.9714C8.47436 13.8862 8.66667 13.6271 8.66667 13.3333H8ZM7.2604 12.2239L6.7057 12.5937L7.2604 12.2239ZM2.66667 3.99998H6V2.66665H2.66667V3.99998ZM7.33333 5.33331V13.3333H8.66667V5.33331H7.33333ZM2.66667 10.6666V3.99998H1.33333V10.6666H2.66667ZM8.5547 12.9635L7.8151 11.8541L6.7057 12.5937L7.4453 13.7031L8.5547 12.9635ZM5.5963 10.6666H2.66667V12H5.5963V10.6666ZM7.8151 11.8541C7.32052 11.1122 6.48791 10.6666 5.5963 10.6666V12C6.0421 12 6.45841 12.2228 6.7057 12.5937L7.8151 11.8541ZM1.33333 10.6666C1.33333 11.403 1.93029 12 2.66667 12V10.6666H2.66667H1.33333ZM6 3.99998C6.73638 3.99998 7.33333 4.59693 7.33333 5.33331H8.66667C8.66667 3.86055 7.47276 2.66665 6 2.66665V3.99998ZM2.66667 2.66665C1.93029 2.66665 1.33333 3.2636 1.33333 3.99998H2.66667V3.99998V2.66665Z" fill="#57606A"/>
</svg>
